<?xml version="1.0" standalone="no"?>
<!DOCTYPE svg PUBLIC "-//W3C//DTD SVG 20010904//EN"
 "http://www.w3.org/TR/2001/REC-SVG-20010904/DTD/svg10.dtd">
<svg version="1.0" xmlns="http://www.w3.org/2000/svg"
 width="514.000000pt" height="283.000000pt" viewBox="0 0 514.000000 283.000000"
 preserveAspectRatio="xMidYMid meet">
<metadata>
Created by potrace 1.16, written by Peter Selinger 2001-2019
</metadata>
<g transform="translate(0.000000,283.000000) scale(0.100000,-0.100000)"
fill="#000000" stroke="none">
<path d="M3835 2821 c-15 -15 -231 -71 -315 -82 -41 -6 -130 -13 -196 -17 -99
-6 -126 -11 -143 -26 -25 -22 -131 -62 -226 -85 -38 -9 -80 -22 -93 -29 -13
-8 -29 -11 -36 -9 -7 3 -19 -3 -26 -13 -12 -17 -15 -17 -25 -3 -14 19 -45 26
-45 11 0 -5 -13 0 -30 12 -16 12 -34 18 -40 15 -5 -3 -10 -2 -10 4 0 6 -7 7
-17 4 -11 -4 -14 -3 -9 6 6 9 1 10 -18 5 -18 -4 -26 -2 -26 7 0 7 -2 10 -5 7
-8 -8 6 -39 15 -33 5 3 11 1 15 -5 3 -5 15 -10 26 -10 10 0 19 -5 19 -11 0
-18 -56 -3 -80 21 -11 11 -20 22 -19 25 0 3 -2 11 -4 18 -3 7 -6 5 -6 -5 -1
-10 -5 -18 -11 -18 -5 0 -7 7 -4 15 5 11 -1 15 -20 15 -14 0 -26 -5 -26 -11 0
-6 -7 -3 -16 5 -8 9 -21 16 -27 16 -7 0 -6 -5 3 -11 12 -9 12 -10 -3 -5 -10 3
-21 6 -23 6 -3 0 -3 4 1 10 8 13 -72 33 -104 25 -32 -8 -53 -24 -46 -36 3 -4
-9 -3 -26 3 -26 9 -34 8 -43 -3 -6 -8 -22 -13 -34 -11 -13 2 -37 -2 -53 -9
-17 -6 -38 -12 -47 -13 -9 -1 -34 -10 -56 -19 -21 -9 -44 -17 -51 -17 -7 0
-37 -21 -66 -47 -29 -27 -50 -40 -46 -31 8 22 4 24 -122 69 -58 20 -128 47
-156 60 -41 18 -72 23 -175 26 -69 3 -141 8 -160 13 -99 24 -226 62 -234 70
-6 6 -45 10 -88 10 l-78 0 0 -27 c2 -96 20 -226 34 -242 9 -10 16 -22 16 -27
0 -16 126 -133 156 -145 16 -7 54 -15 84 -18 43 -5 55 -10 60 -26 21 -78 182
-195 268 -195 15 0 40 7 56 15 39 21 63 19 71 -5 3 -11 14 -20 23 -21 9 -1 44
-2 77 -3 73 -2 85 -9 85 -47 0 -41 26 -67 51 -51 10 7 24 12 30 12 19 0 48
-44 49 -74 0 -23 3 -26 14 -17 10 8 16 9 21 1 8 -13 45 -13 45 0 0 6 4 10 9
10 5 0 9 -6 8 -12 -1 -46 4 -60 19 -54 29 11 11 -71 -23 -106 -37 -40 -125
-83 -209 -104 -99 -25 -362 -153 -316 -154 9 0 11 -7 7 -19 -3 -11 5 -38 20
-65 23 -42 25 -54 24 -158 -1 -62 4 -140 10 -173 25 -127 34 -161 46 -175 7
-8 18 -40 25 -70 6 -30 23 -83 36 -118 13 -35 22 -68 18 -73 -3 -5 5 -18 17
-28 19 -16 21 -21 11 -34 -9 -10 -10 -17 -2 -22 5 -3 10 -17 10 -31 0 -14 5
-35 12 -47 7 -13 13 -63 13 -117 1 -76 6 -103 22 -135 12 -22 29 -60 39 -85
10 -25 29 -57 42 -72 l25 -27 198 -1 c184 0 198 2 192 18 -4 9 -11 20 -17 24
-15 10 39 28 85 28 23 0 47 -7 55 -15 20 -20 30 -19 54 5 19 19 49 22 195 21
22 0 63 7 90 15 28 9 76 17 107 19 32 2 62 7 68 10 5 3 10 1 10 -4 0 -18 29
-12 50 9 11 11 20 15 20 9 0 -7 -8 -18 -17 -26 -17 -14 -17 -14 0 -9 10 3 30
6 45 6 20 0 23 3 14 12 -20 20 -13 32 8 13 19 -17 20 -17 39 6 11 13 20 19 21
13 0 -5 -5 -15 -12 -22 -9 -9 -3 -12 27 -11 22 1 32 3 23 6 -10 2 -18 14 -18
26 0 18 1 19 13 5 6 -9 23 -19 36 -23 21 -7 23 -5 19 19 -3 14 -1 26 3 26 5 0
9 -7 9 -15 0 -22 17 -18 34 7 18 26 21 17 5 -14 -10 -18 -9 -20 6 -15 9 4 26
7 38 7 16 0 18 3 9 12 -24 24 -12 31 13 8 25 -23 25 -23 25 -2 0 12 8 23 20
27 11 3 19 12 17 18 -1 7 4 11 11 9 6 -1 12 4 12 12 0 7 15 16 33 20 32 6 98
35 107 48 3 3 25 14 50 24 25 9 52 23 60 30 12 12 10 14 -18 14 -22 0 -32 5
-32 15 0 8 -8 15 -17 15 -11 0 -14 3 -7 8 19 12 28 54 13 63 -9 5 -6 9 12 14
25 6 33 34 16 51 -13 13 -7 32 11 37 14 4 14 6 -5 12 -26 8 -26 9 -14 33 39
76 38 98 0 73 -32 -20 -33 -7 -4 54 15 30 25 58 21 62 -3 3 -1 12 6 20 6 8 12
49 13 92 2 43 8 88 15 101 6 12 10 30 7 40 -2 9 1 49 7 87 12 69 8 147 -13
243 -21 95 -7 262 24 294 12 11 -10 16 -138 30 -252 29 -382 57 -512 112 -16
6 -15 2 8 -26 23 -27 28 -41 24 -69 -9 -66 -77 -263 -100 -289 -18 -21 -67
-190 -82 -284 -4 -24 -11 -38 -20 -38 -8 0 -15 -7 -15 -15 0 -8 -4 -15 -10
-15 -5 0 -10 -7 -10 -15 0 -26 -28 -16 -44 17 -9 17 -16 37 -16 45 0 26 -73
166 -116 223 -44 59 -58 113 -31 123 6 2 34 -7 61 -20 49 -25 49 -25 43 -3 -4
16 -2 20 9 16 8 -3 14 -2 14 3 0 11 -111 119 -147 142 -15 11 -22 19 -15 19 7
0 36 16 65 35 216 146 257 182 257 233 0 18 6 22 29 22 17 0 32 4 35 9 3 5 21
12 41 15 42 8 56 29 44 69 -9 33 -3 51 13 41 7 -5 9 0 6 14 -8 29 3 34 34 18
24 -13 29 -10 83 35 31 27 68 52 81 55 18 5 24 13 24 34 l0 29 113 -2 c119 -2
167 8 247 48 33 17 50 32 52 47 3 20 9 23 48 24 25 1 63 9 85 19 38 17 165
131 165 149 0 5 7 17 16 27 14 16 32 146 34 242 l0 27 -78 0 c-43 0 -82 -4
-87 -9z m-1619 -1110 c27 -7 77 -26 112 -42 35 -17 89 -32 123 -36 63 -6 63
-23 0 -23 -36 0 -71 -23 -71 -47 0 -7 -4 -13 -9 -13 -5 0 -14 -15 -20 -33 -6
-19 -20 -51 -31 -72 -11 -22 -20 -45 -20 -52 0 -14 -15 -16 -42 -5 -26 11
-149 130 -139 136 4 3 19 -6 31 -19 23 -25 60 -34 60 -15 0 19 17 10 28 -15 7
-15 20 -25 32 -25 23 0 26 22 7 42 -7 7 -13 24 -14 38 -1 15 -20 40 -48 66
-25 23 -45 49 -45 58 0 9 -19 35 -41 57 -31 31 -38 43 -28 49 8 6 23 0 40 -14
15 -13 49 -28 75 -35z"/>
<path d="M1207 1311 c-31 -24 -58 -57 -75 -92 -24 -49 -27 -67 -30 -182 -3
-91 1 -145 12 -190 8 -34 18 -84 22 -112 3 -27 11 -61 16 -75 6 -14 13 -150
16 -303 l5 -278 -32 -39 -32 -40 41 0 c30 0 54 9 85 30 38 26 44 34 39 58 -5
27 6 100 21 135 4 10 4 17 -1 16 -26 -4 -34 2 -26 19 5 9 9 32 7 49 -1 24 3
34 17 39 11 3 18 15 18 30 0 15 6 24 15 24 27 0 16 18 -15 25 -16 4 -33 11
-37 17 -4 7 0 9 10 5 13 -5 21 3 31 28 8 19 20 35 26 35 6 0 8 5 5 10 -4 6
-10 8 -14 5 -5 -2 -25 4 -46 15 l-37 19 41 -2 c28 -1 45 4 51 13 14 22 12 30
-5 30 -25 0 -78 31 -69 39 5 4 29 14 54 22 l45 14 -65 15 c-36 8 -74 21 -85
28 -17 11 -11 12 38 6 35 -4 57 -3 57 4 0 5 -9 12 -20 15 -12 3 -20 14 -20 26
0 12 -5 21 -11 21 -5 0 -7 5 -4 10 3 6 23 11 43 11 l37 1 -52 17 c-29 8 -53
21 -53 28 0 7 -6 13 -13 13 -15 0 -81 59 -74 66 3 3 19 -2 36 -10 35 -19 45
-20 36 -6 -11 19 -14 70 -4 70 5 0 28 -9 51 -21 22 -11 48 -22 57 -24 9 -2 27
-7 41 -11 32 -9 18 7 -32 35 -98 54 -115 65 -150 93 -49 38 -48 51 2 33 l40
-14 -16 24 c-29 44 4 28 59 -28 29 -29 68 -63 87 -77 49 -34 80 -63 80 -76 0
-6 18 -31 40 -54 22 -23 40 -46 40 -50 0 -4 7 -10 15 -14 20 -7 19 -4 -9 29
-14 16 -35 48 -47 72 -12 24 -25 43 -29 43 -4 0 -10 8 -14 18 -3 9 -11 26 -18
37 -50 77 -70 104 -102 135 -19 19 -36 40 -36 46 0 5 -13 23 -30 39 -38 37
-38 64 1 98 46 40 22 32 -34 -12z"/>
</g>
</svg>
